<?xml version="1.0" encoding="utf-8"?>
<!-- Generator: Adobe Illustrator 14.0.0, SVG Export Plug-In . SVG Version: 6.00 Build 43363)  -->
<!DOCTYPE svg PUBLIC "-//W3C//DTD SVG 1.1//EN" "http://www.w3.org/Graphics/SVG/1.1/DTD/svg11.dtd">
<svg version="1.1" id="Layer_1" xmlns="http://www.w3.org/2000/svg" xmlns:xlink="http://www.w3.org/1999/xlink" x="0px" y="0px"
	 width="383.688px" height="72px" viewBox="0 0 383.688 72" enable-background="new 0 0 383.688 72" xml:space="preserve">
<path fill="#FFFFFF" d="M34.2,69.696c-1.152-1.008-1.728-2.279-1.728-3.815V39.096c0-3.408-0.889-6-2.664-7.776
	c-1.681-1.631-3.792-2.448-6.336-2.448c-3.553,0-6.601,1.033-9.144,3.096c-2.401,2.113-3.6,5.472-3.6,10.08V65.88
	c0,1.68-0.648,2.999-1.944,3.96c-1.057,0.768-2.293,1.152-3.708,1.152c-1.417,0-2.617-0.469-3.6-1.404
	C0.492,68.653,0,67.417,0,65.88V25.848c0-1.631,0.623-2.927,1.872-3.888c1.055-0.911,2.232-1.368,3.528-1.368
	c1.44,0,2.616,0.36,3.528,1.08c0.623,0.529,1.08,1.177,1.368,1.944c0.191,0.673,0.312,1.2,0.36,1.584
	c1.008-0.959,2.376-1.944,4.104-2.952c3.12-1.68,6.239-2.52,9.36-2.52c3.12,0,5.735,0.385,7.848,1.152
	c2.304,0.816,4.295,2.016,5.976,3.6c3.696,3.456,5.544,8.496,5.544,15.12v26.28c0,1.728-0.672,3.048-2.016,3.96
	c-1.105,0.768-2.304,1.152-3.6,1.152C36.528,70.993,35.304,70.56,34.2,69.696z M74.664,72c7.728,0,13.968-2.377,18.72-7.129
	c0.816-0.768,1.271-1.92,1.368-3.455c0.24-1.104-0.061-2.076-0.9-2.916c-0.84-0.84-1.861-1.26-3.06-1.26
	c-0.961,0-1.848,0.24-2.664,0.719l-0.216,0.145c-4.464,3.168-8.856,4.752-13.176,4.752c-2.113,0-3.913-0.24-5.4-0.72
	c-5.184-2.063-8.089-6.455-8.712-13.177h32.328l0.072-0.071c1.392-0.096,2.484-0.54,3.276-1.332s1.188-1.836,1.188-3.132
	c-0.241-7.488-2.28-13.344-6.12-17.568c-4.081-4.752-10.033-7.128-17.856-7.128c-7.825,0-13.873,2.664-18.144,7.992
	c-4.032,4.752-6.048,10.776-6.048,18.071c0,7.921,2.448,14.305,7.344,19.152C61.128,69.648,66.983,72,74.232,72H74.664z
	 M60.984,40.536c0.432-2.879,1.608-5.472,3.528-7.775c2.448-2.592,5.447-3.888,9-3.888c4.176,0,7.308,1.116,9.396,3.348
	c2.088,2.232,3.348,5.004,3.78,8.315H60.984z M129.96,66.6c0-0.961-0.385-1.848-1.152-2.664c-0.864-0.961-1.969-1.439-3.312-1.439
	l-4.896,0.359c-1.057,0-1.897-0.168-2.52-0.504c-0.529-0.24-0.936-0.816-1.224-1.729c-0.336-1.008-0.504-4.535-0.504-10.584V29.736
	h6.912c1.44,0,2.58-0.443,3.42-1.332c0.839-0.888,1.26-1.956,1.26-3.204c0-1.104-0.385-2.112-1.152-3.024
	c-0.864-1.055-2.041-1.584-3.528-1.584h-6.912V8.856c0-1.584-0.468-2.772-1.404-3.564c-0.936-0.792-2.029-1.188-3.276-1.188
	c-1.104,0-2.208,0.36-3.312,1.08c-1.152,0.817-1.825,1.944-2.016,3.384l-0.432,12.024h-4.392c-1.728,0-3,0.552-3.816,1.656
	c-0.72,0.913-1.08,1.885-1.08,2.916c0,1.033,0.443,2.052,1.332,3.06c0.888,1.008,2.076,1.512,3.564,1.512h3.816v24.408
	c0.144,6.146,1.32,10.68,3.528,13.608c2.16,2.832,5.712,4.248,10.656,4.248C126.479,72,129.96,70.2,129.96,66.6z M162.936,66.6
	c0-0.961-0.385-1.848-1.152-2.664c-0.864-0.961-1.993-1.439-3.384-1.439l-4.896,0.359c-1.008,0-1.825-0.168-2.448-0.504
	c-0.529-0.24-0.936-0.816-1.224-1.729c-0.385-1.151-0.576-4.68-0.576-10.584V29.736h6.912c1.536,0,2.711-0.432,3.528-1.296
	c0.816-0.864,1.224-1.944,1.224-3.24c0-1.104-0.385-2.112-1.152-3.024c-0.864-1.055-2.064-1.584-3.6-1.584h-6.912V8.856
	c0-1.631-0.48-2.832-1.44-3.6c-0.817-0.768-1.848-1.152-3.096-1.152c-1.249,0-2.376,0.36-3.384,1.08
	c-1.152,0.817-1.825,1.944-2.016,3.384l-0.432,12.024h-4.392c-1.728,0-3,0.552-3.816,1.656c-0.72,0.913-1.08,1.897-1.08,2.952
	c0,1.056,0.456,2.077,1.368,3.06c0.912,0.984,2.088,1.476,3.528,1.476h3.816v24.408c0.144,6.146,1.32,10.68,3.528,13.608
	C144,70.584,147.552,72,152.496,72C159.455,72,162.936,70.2,162.936,66.6z M176.364,10.26c1.271-1.127,1.908-2.604,1.908-4.428
	c0-1.631-0.612-3.011-1.836-4.14C175.212,0.565,173.556,0,171.468,0c-2.088,0-3.769,0.565-5.04,1.692
	c-1.272,1.128-1.908,2.509-1.908,4.14c0,1.825,0.636,3.301,1.908,4.428c1.271,1.128,2.916,1.692,4.932,1.692
	C173.423,11.952,175.092,11.389,176.364,10.26z M175.104,69.768c1.248-0.961,1.872-2.328,1.872-4.104V26.208
	c0-1.775-0.648-3.12-1.944-4.032c-0.48-0.528-0.984-0.888-1.512-1.08c-0.625-0.335-1.417-0.504-2.376-0.504
	c-1.105,0-2.208,0.48-3.312,1.44c-1.2,1.056-1.8,2.448-1.8,4.176v39.457c0,1.728,0.576,3.07,1.728,4.031
	c1.008,0.864,2.208,1.297,3.6,1.297C172.751,70.993,173.999,70.584,175.104,69.768z M194.832,69.768
	c1.247-0.961,1.872-2.328,1.872-4.104V5.616c0-1.872-0.648-3.264-1.944-4.176c-0.673-0.624-1.308-0.983-1.908-1.08
	c-0.601-0.096-1.26-0.144-1.98-0.144c-1.008,0-2.064,0.408-3.168,1.224c-1.296,0.816-1.944,2.208-1.944,4.176v60.048
	c0,1.68,0.551,3.023,1.656,4.031c1.104,0.864,2.328,1.297,3.672,1.297C192.384,70.993,193.632,70.584,194.832,69.768z
	 M224.856,71.352c3.646-0.816,6.552-2.304,8.712-4.464c0.19,1.343,0.803,2.364,1.836,3.06c1.031,0.695,2.147,1.045,3.348,1.045
	c1.344,0,2.521-0.408,3.528-1.225c1.151-0.863,1.728-2.113,1.728-3.744l0.216-28.656c0-2.975-0.456-5.591-1.367-7.848
	c-2.736-6.527-8.856-9.792-18.36-9.792c-8.017,0-14.137,1.993-18.36,5.976c-1.104,1.008-1.655,2.088-1.655,3.24
	c0,1.296,0.479,2.376,1.439,3.24c1.008,0.769,1.991,1.152,2.952,1.152c0.96,0,2.16-0.432,3.6-1.296
	c1.296-0.767,3.097-1.584,5.4-2.448c1.247-0.479,3.432-0.72,6.552-0.72s5.411,0.637,6.876,1.908
	c1.464,1.272,2.196,3.301,2.196,6.084v2.232h-3.528c-9.313,0-16.32,1.439-21.023,4.32c-4.705,2.88-7.057,7.176-7.057,12.888
	c0,4.943,1.729,8.856,5.185,11.735c1.631,1.344,3.552,2.352,5.76,3.024c2.016,0.624,4.128,0.937,6.336,0.937
	C221.328,72,223.224,71.784,224.856,71.352z M233.496,50.472c-0.241,4.177-1.416,7.249-3.528,9.216
	c-2.4,2.111-5.232,3.168-8.496,3.168c-2.688-0.049-4.729-0.624-6.12-1.728l-0.071-0.072c-1.681-1.199-2.521-2.783-2.521-4.752
	c0.145-2.783,1.344-4.775,3.601-5.976c1.247-0.672,2.592-1.176,4.031-1.512c1.248-0.289,2.881-0.48,4.896-0.576
	c1.199-0.048,2.952-0.072,5.256-0.072c1.392,0,2.376-0.023,2.952-0.072V50.472z M270.072,72c5.903,0,10.8-1.297,14.688-3.889
	c4.752-3.023,7.128-7.318,7.128-12.888c0-3.071-0.889-5.76-2.664-8.063c-1.728-2.16-4.152-3.72-7.271-4.681
	c-2.353-0.815-4.345-1.415-5.977-1.8l-5.327-1.225c-1.44-0.287-2.929-0.647-4.465-1.08c-1.969-0.527-3.36-1.223-4.176-2.087
	c-0.528-0.623-0.792-1.392-0.792-2.304c0-1.343,0.335-2.376,1.008-3.096c1.296-1.343,3.936-2.016,7.92-2.016
	c2.784,0,4.992,0.216,6.624,0.648h0.072l0.072,0.072c0.623,0.048,1.319,0.264,2.088,0.648l1.944,1.152
	c0.815,0.625,2.039,0.936,3.672,0.936c1.055,0,1.991-0.335,2.808-1.008c0.96-0.72,1.44-1.68,1.44-2.88
	c0-2.4-1.656-4.464-4.968-6.192c-3.505-1.68-8.041-2.52-13.608-2.52c-5.569,0-10.104,1.057-13.608,3.168
	c-4.464,2.353-6.695,6.192-6.695,11.52c0,4.176,1.631,7.417,4.896,9.72c1.296,1.056,2.855,1.921,4.68,2.592
	c2.017,0.72,3.816,1.224,5.4,1.513l5.4,1.295c1.584,0.337,3.384,0.817,5.399,1.44c1.632,0.48,2.976,1.177,4.032,2.088
	c0.815,0.72,1.224,1.776,1.224,3.169c0,2.016-0.984,3.695-2.951,5.039c-0.864,0.479-1.969,0.888-3.313,1.225
	c-1.44,0.239-3.217,0.359-5.328,0.359c-2.112,0-4.968-0.672-8.567-2.016c-1.729-0.623-2.905-1.055-3.528-1.296
	c-1.2-0.528-2.257-0.792-3.168-0.792c-1.152,0-2.173,0.396-3.061,1.188c-0.889,0.793-1.332,1.859-1.332,3.204
	c0,1.343,0.672,2.616,2.017,3.815c1.055,1.009,2.567,1.92,4.536,2.736C260.64,71.232,265.032,72,269.496,72H270.072z
	 M336.024,69.624c0.527-0.385,0.972-0.889,1.332-1.512c0.359-0.624,0.54-1.416,0.54-2.375c0-1.152-0.409-2.137-1.225-2.953
	l-19.584-19.871l16.992-14.185c1.055-0.864,1.584-2.088,1.584-3.672c0-1.008-0.529-2.003-1.584-2.988
	c-1.057-0.983-2.221-1.476-3.492-1.476c-1.272,0-2.46,0.552-3.563,1.656l-18.648,15.696V5.616c0-1.824-0.504-3.168-1.512-4.032
	c-0.673-0.671-1.393-1.067-2.16-1.188c-0.769-0.119-1.465-0.18-2.088-0.18c-1.057,0-2.137,0.408-3.24,1.224
	c-1.152,0.912-1.728,2.304-1.728,4.176v60.048c0,1.728,0.575,3.07,1.728,4.031c1.008,0.864,2.196,1.297,3.564,1.297
	c1.367,0,2.579-0.433,3.636-1.297c1.199-0.961,1.8-2.304,1.8-4.031V48.096l20.521,21.168c1.151,1.152,2.351,1.729,3.6,1.729
	C333.792,70.993,334.968,70.536,336.024,69.624z M363.744,71.352c3.791-0.816,6.815-2.352,9.072-4.607
	c0.144,1.199,0.695,2.135,1.655,2.808c0.433,0.576,1.08,0.983,1.944,1.224c0.672,0.145,1.368,0.217,2.088,0.217
	c1.008,0,2.063-0.385,3.168-1.152c1.344-0.912,2.016-2.232,2.016-3.96V25.92c0-1.631-0.552-2.952-1.655-3.96
	c-1.057-0.911-2.293-1.368-3.708-1.368c-1.417,0-2.7,0.468-3.853,1.404c-1.151,0.936-1.728,2.245-1.728,3.924v25.128
	c-0.049,2.016-0.504,3.792-1.368,5.327c-1.969,4.32-5.688,6.48-11.16,6.48c-3.168,0-5.508-0.709-7.02-2.123
	c-1.513-1.416-2.269-4.115-2.269-8.101V25.92c0-1.631-0.552-2.952-1.656-3.96c-0.96-0.911-2.172-1.368-3.636-1.368
	c-1.465,0-2.725,0.457-3.779,1.368c-1.105,1.008-1.656,2.329-1.656,3.96v26.064c0,6.721,1.823,11.831,5.472,15.336
	c1.68,1.68,3.66,2.879,5.94,3.6c2.279,0.72,4.451,1.08,6.516,1.08C360.239,72,362.111,71.784,363.744,71.352z"/>
</svg>
